<svg xmlns="http://www.w3.org/2000/svg" xmlns:xlink="http://www.w3.org/1999/xlink" width="2000" zoomAndPan="magnify" viewBox="0 0 1500 1499.999933" height="2000" preserveAspectRatio="xMidYMid meet" version="1.0"><defs><g/><clipPath id="8db7e5d22a"><path d="M 596.125 647.613281 L 737.339844 647.613281 L 737.339844 788.828125 L 596.125 788.828125 Z M 596.125 647.613281 " clip-rule="nonzero"/></clipPath><clipPath id="3df3e301b3"><path d="M 666.730469 647.613281 C 627.738281 647.613281 596.125 679.226562 596.125 718.222656 C 596.125 757.21875 627.738281 788.828125 666.730469 788.828125 C 705.726562 788.828125 737.339844 757.21875 737.339844 718.222656 C 737.339844 679.226562 705.726562 647.613281 666.730469 647.613281 Z M 666.730469 647.613281 " clip-rule="nonzero"/></clipPath><clipPath id="225c195269"><path d="M 0.125 0.613281 L 141.339844 0.613281 L 141.339844 141.828125 L 0.125 141.828125 Z M 0.125 0.613281 " clip-rule="nonzero"/></clipPath><clipPath id="a148204104"><path d="M 70.730469 0.613281 C 31.738281 0.613281 0.125 32.226562 0.125 71.222656 C 0.125 110.21875 31.738281 141.828125 70.730469 141.828125 C 109.726562 141.828125 141.339844 110.21875 141.339844 71.222656 C 141.339844 32.226562 109.726562 0.613281 70.730469 0.613281 Z M 70.730469 0.613281 " clip-rule="nonzero"/></clipPath><clipPath id="992f56b865"><rect x="0" width="142" y="0" height="142"/></clipPath><clipPath id="27d92c25b6"><path d="M 632.980469 647.613281 L 774.199219 647.613281 L 774.199219 788.828125 L 632.980469 788.828125 Z M 632.980469 647.613281 " clip-rule="nonzero"/></clipPath><clipPath id="1908949fa7"><path d="M 703.589844 647.613281 C 664.59375 647.613281 632.980469 679.226562 632.980469 718.222656 C 632.980469 757.21875 664.59375 788.828125 703.589844 788.828125 C 742.585938 788.828125 774.199219 757.21875 774.199219 718.222656 C 774.199219 679.226562 742.585938 647.613281 703.589844 647.613281 Z M 703.589844 647.613281 " clip-rule="nonzero"/></clipPath><clipPath id="68dce37197"><path d="M 0.980469 0.613281 L 142.199219 0.613281 L 142.199219 141.828125 L 0.980469 141.828125 Z M 0.980469 0.613281 " clip-rule="nonzero"/></clipPath><clipPath id="a933633873"><path d="M 71.589844 0.613281 C 32.59375 0.613281 0.980469 32.226562 0.980469 71.222656 C 0.980469 110.21875 32.59375 141.828125 71.589844 141.828125 C 110.585938 141.828125 142.199219 110.21875 142.199219 71.222656 C 142.199219 32.226562 110.585938 0.613281 71.589844 0.613281 Z M 71.589844 0.613281 " clip-rule="nonzero"/></clipPath><clipPath id="c662036833"><rect x="0" width="143" y="0" height="142"/></clipPath><clipPath id="3b9b0d1b6d"><path d="M 681.042969 647.613281 L 822.257812 647.613281 L 822.257812 788.828125 L 681.042969 788.828125 Z M 681.042969 647.613281 " clip-rule="nonzero"/></clipPath><clipPath id="7d89f8394a"><path d="M 751.652344 647.613281 C 712.65625 647.613281 681.042969 679.226562 681.042969 718.222656 C 681.042969 757.21875 712.65625 788.828125 751.652344 788.828125 C 790.644531 788.828125 822.257812 757.21875 822.257812 718.222656 C 822.257812 679.226562 790.644531 647.613281 751.652344 647.613281 Z M 751.652344 647.613281 " clip-rule="nonzero"/></clipPath><clipPath id="e8dadbff3b"><path d="M 0.0429688 0.613281 L 141.257812 0.613281 L 141.257812 141.828125 L 0.0429688 141.828125 Z M 0.0429688 0.613281 " clip-rule="nonzero"/></clipPath><clipPath id="070ac99357"><path d="M 70.652344 0.613281 C 31.65625 0.613281 0.0429688 32.226562 0.0429688 71.222656 C 0.0429688 110.21875 31.65625 141.828125 70.652344 141.828125 C 109.644531 141.828125 141.257812 110.21875 141.257812 71.222656 C 141.257812 32.226562 109.644531 0.613281 70.652344 0.613281 Z M 70.652344 0.613281 " clip-rule="nonzero"/></clipPath><clipPath id="2f855f466d"><rect x="0" width="142" y="0" height="142"/></clipPath></defs><g fill="#ffffff" fill-opacity="1"><g transform="translate(107.92969, 773.658729)"><g><path d="M 53.046875 2.15625 C 44.378906 2.15625 36.738281 -0.0390625 30.125 -4.4375 C 23.507812 -8.84375 18.347656 -15.050781 14.640625 -23.0625 C 10.929688 -31.082031 9.078125 -40.550781 9.078125 -51.46875 C 9.078125 -62.320312 10.929688 -71.738281 14.640625 -79.71875 C 18.347656 -87.707031 23.523438 -93.882812 30.171875 -98.25 C 36.816406 -102.613281 44.441406 -104.796875 53.046875 -104.796875 C 59.285156 -104.796875 64.398438 -103.78125 68.390625 -101.75 C 72.390625 -99.726562 75.570312 -97.34375 77.9375 -94.59375 C 80.3125 -91.851562 82.1875 -89.328125 83.5625 -87.015625 L 84.578125 -87.015625 L 84.578125 -139.421875 L 101.234375 -139.421875 L 101.234375 0 L 85.140625 0 L 85.140625 -15.90625 L 83.65625 -15.90625 C 82.21875 -13.53125 80.28125 -10.941406 77.84375 -8.140625 C 75.414062 -5.335938 72.203125 -2.921875 68.203125 -0.890625 C 64.210938 1.140625 59.160156 2.15625 53.046875 2.15625 Z M 55.484375 -12.71875 C 61.785156 -12.71875 67.132812 -14.351562 71.53125 -17.625 C 75.925781 -20.90625 79.273438 -25.460938 81.578125 -31.296875 C 83.890625 -37.128906 85.046875 -43.882812 85.046875 -51.5625 C 85.046875 -59.226562 83.90625 -65.929688 81.625 -71.671875 C 79.351562 -77.410156 76.019531 -81.882812 71.625 -85.09375 C 67.226562 -88.3125 61.847656 -89.921875 55.484375 -89.921875 C 49.117188 -89.921875 43.738281 -88.265625 39.34375 -84.953125 C 34.945312 -81.648438 31.609375 -77.113281 29.328125 -71.34375 C 27.054688 -65.570312 25.921875 -58.976562 25.921875 -51.5625 C 25.921875 -44.132812 27.054688 -37.488281 29.328125 -31.625 C 31.609375 -25.757812 34.960938 -21.140625 39.390625 -17.765625 C 43.816406 -14.398438 49.179688 -12.71875 55.484375 -12.71875 Z M 55.484375 -12.71875 "/></g></g></g><g fill="#ffffff" fill-opacity="1"><g transform="translate(214.667763, 773.658729)"><g><path d="M 14.125 0 L 14.125 -103.296875 L 30.78125 -103.296875 L 30.78125 0 Z M 22.453125 -120.890625 C 19.335938 -120.890625 16.640625 -121.976562 14.359375 -124.15625 C 12.085938 -126.34375 10.953125 -128.960938 10.953125 -132.015625 C 10.953125 -135.078125 12.085938 -137.679688 14.359375 -139.828125 C 16.640625 -141.984375 19.335938 -143.0625 22.453125 -143.0625 C 25.640625 -143.0625 28.367188 -141.984375 30.640625 -139.828125 C 32.921875 -137.679688 34.0625 -135.078125 34.0625 -132.015625 C 34.0625 -128.960938 32.921875 -126.34375 30.640625 -124.15625 C 28.367188 -121.976562 25.640625 -120.890625 22.453125 -120.890625 Z M 22.453125 -120.890625 "/></g></g></g><g fill="#ffffff" fill-opacity="1"><g transform="translate(250.954274, 773.658729)"><g><path d="M 14.125 0 L 14.125 -103.296875 L 30.125 -103.296875 L 30.125 -87.390625 L 31.0625 -87.390625 C 33 -92.628906 36.335938 -96.835938 41.078125 -100.015625 C 45.816406 -103.203125 51.273438 -104.796875 57.453125 -104.796875 C 58.765625 -104.796875 60.226562 -104.765625 61.84375 -104.703125 C 63.46875 -104.640625 64.71875 -104.578125 65.59375 -104.515625 L 65.59375 -87.765625 C 65.09375 -87.890625 63.859375 -88.078125 61.890625 -88.328125 C 59.929688 -88.578125 57.828125 -88.703125 55.578125 -88.703125 C 50.898438 -88.703125 46.671875 -87.703125 42.890625 -85.703125 C 39.117188 -83.710938 36.15625 -80.90625 34 -77.28125 C 31.851562 -73.664062 30.78125 -69.394531 30.78125 -64.46875 L 30.78125 0 Z M 14.125 0 "/></g></g></g><g fill="#ffffff" fill-opacity="1"><g transform="translate(309.227585, 773.658729)"><g><path d="M 57.359375 2.25 C 47.378906 2.25 38.769531 0.00390625 31.53125 -4.484375 C 24.289062 -8.984375 18.738281 -15.222656 14.875 -23.203125 C 11.007812 -31.191406 9.078125 -40.457031 9.078125 -51 C 9.078125 -61.539062 10.992188 -70.863281 14.828125 -78.96875 C 18.660156 -87.082031 24.085938 -93.414062 31.109375 -97.96875 C 38.128906 -102.519531 46.285156 -104.796875 55.578125 -104.796875 C 61.441406 -104.796875 67.085938 -103.8125 72.515625 -101.84375 C 77.941406 -99.882812 82.804688 -96.796875 87.109375 -92.578125 C 91.410156 -88.367188 94.804688 -82.957031 97.296875 -76.34375 C 99.796875 -69.738281 101.046875 -61.847656 101.046875 -52.671875 L 101.046875 -46.21875 L 19.84375 -46.21875 L 19.84375 -60.25 L 91.96875 -60.25 L 84.390625 -55.203125 C 84.390625 -62.003906 83.28125 -68.023438 81.0625 -73.265625 C 78.851562 -78.503906 75.613281 -82.601562 71.34375 -85.5625 C 67.070312 -88.53125 61.816406 -90.015625 55.578125 -90.015625 C 49.398438 -90.015625 44.082031 -88.515625 39.625 -85.515625 C 35.164062 -82.523438 31.75 -78.550781 29.375 -73.59375 C 27.007812 -68.632812 25.828125 -63.191406 25.828125 -57.265625 L 25.828125 -48.46875 C 25.828125 -40.914062 27.117188 -34.457031 29.703125 -29.09375 C 32.296875 -23.726562 35.976562 -19.640625 40.75 -16.828125 C 45.519531 -14.023438 51.085938 -12.625 57.453125 -12.625 C 61.691406 -12.625 65.507812 -13.25 68.90625 -14.5 C 72.3125 -15.75 75.226562 -17.585938 77.65625 -20.015625 C 80.09375 -22.453125 81.9375 -25.445312 83.1875 -29 L 99.375 -25.453125 C 97.8125 -20.023438 95.09375 -15.21875 91.21875 -11.03125 C 87.351562 -6.851562 82.535156 -3.59375 76.765625 -1.25 C 70.992188 1.082031 64.523438 2.25 57.359375 2.25 Z M 57.359375 2.25 "/></g></g></g><g fill="#ffffff" fill-opacity="1"><g transform="translate(410.352012, 773.658729)"><g><path d="M 56.328125 2.25 C 46.910156 2.25 38.660156 0.0195312 31.578125 -4.4375 C 24.492188 -8.90625 18.972656 -15.160156 15.015625 -23.203125 C 11.054688 -31.253906 9.078125 -40.550781 9.078125 -51.09375 C 9.078125 -61.820312 11.054688 -71.222656 15.015625 -79.296875 C 18.972656 -87.378906 24.492188 -93.648438 31.578125 -98.109375 C 38.660156 -102.566406 46.910156 -104.796875 56.328125 -104.796875 C 61.503906 -104.796875 66.367188 -104.109375 70.921875 -102.734375 C 75.472656 -101.359375 79.585938 -99.359375 83.265625 -96.734375 C 86.953125 -94.117188 90.101562 -90.957031 92.71875 -87.25 C 95.34375 -83.539062 97.28125 -79.347656 98.53125 -74.671875 L 82.34375 -71.109375 C 81.65625 -73.859375 80.546875 -76.367188 79.015625 -78.640625 C 77.484375 -80.921875 75.625 -82.898438 73.4375 -84.578125 C 71.257812 -86.265625 68.734375 -87.578125 65.859375 -88.515625 C 62.992188 -89.453125 59.816406 -89.921875 56.328125 -89.921875 C 49.523438 -89.921875 43.878906 -88.15625 39.390625 -84.625 C 34.898438 -81.101562 31.53125 -76.410156 29.28125 -70.546875 C 27.039062 -64.679688 25.921875 -58.195312 25.921875 -51.09375 C 25.921875 -44.101562 27.039062 -37.691406 29.28125 -31.859375 C 31.53125 -26.023438 34.882812 -21.359375 39.34375 -17.859375 C 43.800781 -14.367188 49.460938 -12.625 56.328125 -12.625 C 59.816406 -12.625 63.007812 -13.09375 65.90625 -14.03125 C 68.8125 -14.96875 71.382812 -16.304688 73.625 -18.046875 C 75.875 -19.796875 77.75 -21.875 79.25 -24.28125 C 80.75 -26.6875 81.875 -29.289062 82.625 -32.09375 L 98.8125 -28.53125 C 97.5625 -23.789062 95.625 -19.550781 93 -15.8125 C 90.382812 -12.070312 87.21875 -8.84375 83.5 -6.125 C 79.789062 -3.414062 75.628906 -1.34375 71.015625 0.09375 C 66.398438 1.53125 61.503906 2.25 56.328125 2.25 Z M 56.328125 2.25 "/></g></g></g><g fill="#ffffff" fill-opacity="1"><g transform="translate(509.137358, 773.658729)"><g><path d="M 55.765625 -103.296875 L 55.765625 -89.078125 L 1.78125 -89.078125 L 1.78125 -103.296875 Z M 17.875 -128.65625 L 34.53125 -128.65625 L 34.53125 -26.390625 C 34.53125 -21.960938 35.445312 -18.734375 37.28125 -16.703125 C 39.125 -14.671875 42.226562 -13.65625 46.59375 -13.65625 C 47.71875 -13.65625 49.101562 -13.75 50.75 -13.9375 C 52.40625 -14.125 53.921875 -14.3125 55.296875 -14.5 L 58.015625 -0.46875 C 56.265625 0.03125 54.3125 0.40625 52.15625 0.65625 C 50.007812 0.90625 47.90625 1.03125 45.84375 1.03125 C 36.925781 1.03125 30.035156 -1.242188 25.171875 -5.796875 C 20.304688 -10.347656 17.875 -16.773438 17.875 -25.078125 Z M 17.875 -128.65625 "/></g></g></g><g fill="#ffffff" fill-opacity="1"><g transform="translate(562.546842, 773.658729)"><g/></g></g><g fill="#ffffff" fill-opacity="1"><g transform="translate(606.505368, 773.658729)"><g/></g></g><g fill="#ffffff" fill-opacity="1"><g transform="translate(650.463895, 773.658729)"><g/></g></g><g fill="#ffffff" fill-opacity="1"><g transform="translate(694.422422, 773.658729)"><g/></g></g><g fill="#ffffff" fill-opacity="1"><g transform="translate(738.380949, 773.658729)"><g/></g></g><g fill="#ffffff" fill-opacity="1"><g transform="translate(782.339486, 773.658729)"><g/></g></g><g fill="#ffffff" fill-opacity="1"><g transform="translate(826.300721, 773.658729)"><g><path d="M 53.046875 2.15625 C 44.378906 2.15625 36.738281 -0.0390625 30.125 -4.4375 C 23.507812 -8.84375 18.347656 -15.050781 14.640625 -23.0625 C 10.929688 -31.082031 9.078125 -40.550781 9.078125 -51.46875 C 9.078125 -62.320312 10.929688 -71.738281 14.640625 -79.71875 C 18.347656 -87.707031 23.523438 -93.882812 30.171875 -98.25 C 36.816406 -102.613281 44.441406 -104.796875 53.046875 -104.796875 C 59.285156 -104.796875 64.398438 -103.78125 68.390625 -101.75 C 72.390625 -99.726562 75.570312 -97.34375 77.9375 -94.59375 C 80.3125 -91.851562 82.1875 -89.328125 83.5625 -87.015625 L 84.578125 -87.015625 L 84.578125 -139.421875 L 101.234375 -139.421875 L 101.234375 0 L 85.140625 0 L 85.140625 -15.90625 L 83.65625 -15.90625 C 82.21875 -13.53125 80.28125 -10.941406 77.84375 -8.140625 C 75.414062 -5.335938 72.203125 -2.921875 68.203125 -0.890625 C 64.210938 1.140625 59.160156 2.15625 53.046875 2.15625 Z M 55.484375 -12.71875 C 61.785156 -12.71875 67.132812 -14.351562 71.53125 -17.625 C 75.925781 -20.90625 79.273438 -25.460938 81.578125 -31.296875 C 83.890625 -37.128906 85.046875 -43.882812 85.046875 -51.5625 C 85.046875 -59.226562 83.90625 -65.929688 81.625 -71.671875 C 79.351562 -77.410156 76.019531 -81.882812 71.625 -85.09375 C 67.226562 -88.3125 61.847656 -89.921875 55.484375 -89.921875 C 49.117188 -89.921875 43.738281 -88.265625 39.34375 -84.953125 C 34.945312 -81.648438 31.609375 -77.113281 29.328125 -71.34375 C 27.054688 -65.570312 25.921875 -58.976562 25.921875 -51.5625 C 25.921875 -44.132812 27.054688 -37.488281 29.328125 -31.625 C 31.609375 -25.757812 34.960938 -21.140625 39.390625 -17.765625 C 43.816406 -14.398438 49.179688 -12.71875 55.484375 -12.71875 Z M 55.484375 -12.71875 "/></g></g></g><g fill="#ffffff" fill-opacity="1"><g transform="translate(933.038795, 773.658729)"><g><path d="M 57.359375 2.25 C 47.378906 2.25 38.769531 0.00390625 31.53125 -4.484375 C 24.289062 -8.984375 18.738281 -15.222656 14.875 -23.203125 C 11.007812 -31.191406 9.078125 -40.457031 9.078125 -51 C 9.078125 -61.539062 10.992188 -70.863281 14.828125 -78.96875 C 18.660156 -87.082031 24.085938 -93.414062 31.109375 -97.96875 C 38.128906 -102.519531 46.285156 -104.796875 55.578125 -104.796875 C 61.441406 -104.796875 67.085938 -103.8125 72.515625 -101.84375 C 77.941406 -99.882812 82.804688 -96.796875 87.109375 -92.578125 C 91.410156 -88.367188 94.804688 -82.957031 97.296875 -76.34375 C 99.796875 -69.738281 101.046875 -61.847656 101.046875 -52.671875 L 101.046875 -46.21875 L 19.84375 -46.21875 L 19.84375 -60.25 L 91.96875 -60.25 L 84.390625 -55.203125 C 84.390625 -62.003906 83.28125 -68.023438 81.0625 -73.265625 C 78.851562 -78.503906 75.613281 -82.601562 71.34375 -85.5625 C 67.070312 -88.53125 61.816406 -90.015625 55.578125 -90.015625 C 49.398438 -90.015625 44.082031 -88.515625 39.625 -85.515625 C 35.164062 -82.523438 31.75 -78.550781 29.375 -73.59375 C 27.007812 -68.632812 25.828125 -63.191406 25.828125 -57.265625 L 25.828125 -48.46875 C 25.828125 -40.914062 27.117188 -34.457031 29.703125 -29.09375 C 32.296875 -23.726562 35.976562 -19.640625 40.75 -16.828125 C 45.519531 -14.023438 51.085938 -12.625 57.453125 -12.625 C 61.691406 -12.625 65.507812 -13.25 68.90625 -14.5 C 72.3125 -15.75 75.226562 -17.585938 77.65625 -20.015625 C 80.09375 -22.453125 81.9375 -25.445312 83.1875 -29 L 99.375 -25.453125 C 97.8125 -20.023438 95.09375 -15.21875 91.21875 -11.03125 C 87.351562 -6.851562 82.535156 -3.59375 76.765625 -1.25 C 70.992188 1.082031 64.523438 2.25 57.359375 2.25 Z M 57.359375 2.25 "/></g></g></g><g fill="#ffffff" fill-opacity="1"><g transform="translate(1034.163199, 773.658729)"><g><path d="M 30.78125 -139.421875 L 30.78125 0 L 14.125 0 L 14.125 -139.421875 Z M 30.78125 -139.421875 "/></g></g></g><g fill="#ffffff" fill-opacity="1"><g transform="translate(1070.44971, 773.658729)"><g><path d="M 14.125 0 L 14.125 -103.296875 L 30.78125 -103.296875 L 30.78125 0 Z M 22.453125 -120.890625 C 19.335938 -120.890625 16.640625 -121.976562 14.359375 -124.15625 C 12.085938 -126.34375 10.953125 -128.960938 10.953125 -132.015625 C 10.953125 -135.078125 12.085938 -137.679688 14.359375 -139.828125 C 16.640625 -141.984375 19.335938 -143.0625 22.453125 -143.0625 C 25.640625 -143.0625 28.367188 -141.984375 30.640625 -139.828125 C 32.921875 -137.679688 34.0625 -135.078125 34.0625 -132.015625 C 34.0625 -128.960938 32.921875 -126.34375 30.640625 -124.15625 C 28.367188 -121.976562 25.640625 -120.890625 22.453125 -120.890625 Z M 22.453125 -120.890625 "/></g></g></g><g fill="#ffffff" fill-opacity="1"><g transform="translate(1106.736221, 773.658729)"><g><path d="M 44.0625 0 L 4.578125 -103.296875 L 22.734375 -103.296875 L 44.8125 -42.390625 C 47.0625 -36.335938 48.992188 -30.300781 50.609375 -24.28125 C 52.234375 -18.257812 53.921875 -12.410156 55.671875 -6.734375 L 50.0625 -6.734375 C 51.800781 -12.410156 53.5 -18.257812 55.15625 -24.28125 C 56.8125 -30.300781 58.726562 -36.335938 60.90625 -42.390625 L 82.90625 -103.296875 L 100.953125 -103.296875 L 61.46875 0 Z M 44.0625 0 "/></g></g></g><g fill="#ffffff" fill-opacity="1"><g transform="translate(1199.907852, 773.658729)"><g><path d="M 57.359375 2.25 C 47.378906 2.25 38.769531 0.00390625 31.53125 -4.484375 C 24.289062 -8.984375 18.738281 -15.222656 14.875 -23.203125 C 11.007812 -31.191406 9.078125 -40.457031 9.078125 -51 C 9.078125 -61.539062 10.992188 -70.863281 14.828125 -78.96875 C 18.660156 -87.082031 24.085938 -93.414062 31.109375 -97.96875 C 38.128906 -102.519531 46.285156 -104.796875 55.578125 -104.796875 C 61.441406 -104.796875 67.085938 -103.8125 72.515625 -101.84375 C 77.941406 -99.882812 82.804688 -96.796875 87.109375 -92.578125 C 91.410156 -88.367188 94.804688 -82.957031 97.296875 -76.34375 C 99.796875 -69.738281 101.046875 -61.847656 101.046875 -52.671875 L 101.046875 -46.21875 L 19.84375 -46.21875 L 19.84375 -60.25 L 91.96875 -60.25 L 84.390625 -55.203125 C 84.390625 -62.003906 83.28125 -68.023438 81.0625 -73.265625 C 78.851562 -78.503906 75.613281 -82.601562 71.34375 -85.5625 C 67.070312 -88.53125 61.816406 -90.015625 55.578125 -90.015625 C 49.398438 -90.015625 44.082031 -88.515625 39.625 -85.515625 C 35.164062 -82.523438 31.75 -78.550781 29.375 -73.59375 C 27.007812 -68.632812 25.828125 -63.191406 25.828125 -57.265625 L 25.828125 -48.46875 C 25.828125 -40.914062 27.117188 -34.457031 29.703125 -29.09375 C 32.296875 -23.726562 35.976562 -19.640625 40.75 -16.828125 C 45.519531 -14.023438 51.085938 -12.625 57.453125 -12.625 C 61.691406 -12.625 65.507812 -13.25 68.90625 -14.5 C 72.3125 -15.75 75.226562 -17.585938 77.65625 -20.015625 C 80.09375 -22.453125 81.9375 -25.445312 83.1875 -29 L 99.375 -25.453125 C 97.8125 -20.023438 95.09375 -15.21875 91.21875 -11.03125 C 87.351562 -6.851562 82.535156 -3.59375 76.765625 -1.25 C 70.992188 1.082031 64.523438 2.25 57.359375 2.25 Z M 57.359375 2.25 "/></g></g></g><g fill="#ffffff" fill-opacity="1"><g transform="translate(1301.032233, 773.658729)"><g><path d="M 14.125 0 L 14.125 -103.296875 L 30.125 -103.296875 L 30.125 -87.390625 L 31.0625 -87.390625 C 33 -92.628906 36.335938 -96.835938 41.078125 -100.015625 C 45.816406 -103.203125 51.273438 -104.796875 57.453125 -104.796875 C 58.765625 -104.796875 60.226562 -104.765625 61.84375 -104.703125 C 63.46875 -104.640625 64.71875 -104.578125 65.59375 -104.515625 L 65.59375 -87.765625 C 65.09375 -87.890625 63.859375 -88.078125 61.890625 -88.328125 C 59.929688 -88.578125 57.828125 -88.703125 55.578125 -88.703125 C 50.898438 -88.703125 46.671875 -87.703125 42.890625 -85.703125 C 39.117188 -83.710938 36.15625 -80.90625 34 -77.28125 C 31.851562 -73.664062 30.78125 -69.394531 30.78125 -64.46875 L 30.78125 0 Z M 14.125 0 "/></g></g></g><g fill="#ffffff" fill-opacity="1"><g transform="translate(1364.919373, 773.658729)"><g><path d="M 13 38.171875 L 16.28125 23.671875 L 19.84375 24.046875 C 22.957031 24.734375 25.789062 24.828125 28.34375 24.328125 C 30.90625 23.828125 33.195312 22.453125 35.21875 20.203125 C 37.25 17.960938 39.046875 14.597656 40.609375 10.109375 L 44.15625 0.28125 L 4.578125 -103.296875 L 22.734375 -103.296875 L 44.8125 -42.390625 C 47.0625 -36.335938 48.992188 -30.300781 50.609375 -24.28125 C 52.234375 -18.257812 53.921875 -12.410156 55.671875 -6.734375 L 49.96875 -6.734375 C 51.707031 -12.410156 53.40625 -18.257812 55.0625 -24.28125 C 56.71875 -30.300781 58.632812 -36.335938 60.8125 -42.390625 L 83 -103.296875 L 100.953125 -103.296875 L 55.109375 16.1875 C 53.109375 21.488281 50.660156 25.882812 47.765625 29.375 C 44.867188 32.875 41.5 35.460938 37.65625 37.140625 C 33.820312 38.828125 29.503906 39.671875 24.703125 39.671875 C 22.015625 39.671875 19.640625 39.5 17.578125 39.15625 C 15.523438 38.8125 14 38.484375 13 38.171875 Z M 13 38.171875 "/></g></g></g><g clip-path="url(#8db7e5d22a)"><g clip-path="url(#3df3e301b3)"><g transform="matrix(1, 0, 0, 1, 596, 647)"><g clip-path="url(#992f56b865)"><g clip-path="url(#225c195269)"><g clip-path="url(#a148204104)"><path fill="#d8d3ca" d="M 0.125 0.613281 L 141.339844 0.613281 L 141.339844 141.828125 L 0.125 141.828125 Z M 0.125 0.613281 " fill-opacity="1" fill-rule="nonzero"/></g></g></g></g></g></g><g clip-path="url(#27d92c25b6)"><g clip-path="url(#1908949fa7)"><g transform="matrix(1, 0, 0, 1, 632, 647)"><g clip-path="url(#c662036833)"><g clip-path="url(#68dce37197)"><g clip-path="url(#a933633873)"><path fill="#ff914d" d="M 0.980469 0.613281 L 142.199219 0.613281 L 142.199219 141.828125 L 0.980469 141.828125 Z M 0.980469 0.613281 " fill-opacity="1" fill-rule="nonzero"/></g></g></g></g></g></g><g clip-path="url(#3b9b0d1b6d)"><g clip-path="url(#7d89f8394a)"><g transform="matrix(1, 0, 0, 1, 681, 647)"><g clip-path="url(#2f855f466d)"><g clip-path="url(#e8dadbff3b)"><g clip-path="url(#070ac99357)"><path fill="#eb5a00" d="M 0.0429688 0.613281 L 141.257812 0.613281 L 141.257812 141.828125 L 0.0429688 141.828125 Z M 0.0429688 0.613281 " fill-opacity="1" fill-rule="nonzero"/></g></g></g></g></g></g></svg>